<mxfile host="app.diagrams.net" modified="2023-07-23T15:19:24.028Z" agent="Mozilla/5.0 (Windows NT 10.0; Win64; x64) AppleWebKit/537.36 (KHTML, like Gecko) Chrome/114.0.0.0 Safari/537.36" etag="lN7e3zHMHwCjERb0U2Nw" version="21.6.5" type="github">
  <diagram id="C5RBs43oDa-KdzZeNtuy" name="Page-1">
    <mxGraphModel dx="793" dy="584" grid="1" gridSize="10" guides="1" tooltips="1" connect="1" arrows="1" fold="1" page="1" pageScale="1" pageWidth="827" pageHeight="1169" math="0" shadow="0">
      <root>
        <mxCell id="WIyWlLk6GJQsqaUBKTNV-0" />
        <mxCell id="WIyWlLk6GJQsqaUBKTNV-1" parent="WIyWlLk6GJQsqaUBKTNV-0" />
        <mxCell id="7Vth30fPWuzFg9I9Hq80-27" value="" style="group" vertex="1" connectable="0" parent="WIyWlLk6GJQsqaUBKTNV-1">
          <mxGeometry x="130" y="30" width="496.4934818160393" height="504.5" as="geometry" />
        </mxCell>
        <mxCell id="7Vth30fPWuzFg9I9Hq80-0" value="Get number" style="shape=parallelogram;perimeter=parallelogramPerimeter;whiteSpace=wrap;html=1;fixedSize=1;" vertex="1" parent="7Vth30fPWuzFg9I9Hq80-27">
          <mxGeometry x="290" width="120" height="60" as="geometry" />
        </mxCell>
        <mxCell id="7Vth30fPWuzFg9I9Hq80-1" value="" style="endArrow=classic;html=1;rounded=0;" edge="1" parent="7Vth30fPWuzFg9I9Hq80-27">
          <mxGeometry width="50" height="50" relative="1" as="geometry">
            <mxPoint x="340" y="60" as="sourcePoint" />
            <mxPoint x="340" y="100" as="targetPoint" />
          </mxGeometry>
        </mxCell>
        <mxCell id="7Vth30fPWuzFg9I9Hq80-2" value="Read number n" style="rounded=0;whiteSpace=wrap;html=1;" vertex="1" parent="7Vth30fPWuzFg9I9Hq80-27">
          <mxGeometry x="280" y="100" width="120" height="60" as="geometry" />
        </mxCell>
        <mxCell id="7Vth30fPWuzFg9I9Hq80-3" value="initialize sum" style="rounded=1;whiteSpace=wrap;html=1;" vertex="1" parent="7Vth30fPWuzFg9I9Hq80-27">
          <mxGeometry x="280" y="180" width="120" height="60" as="geometry" />
        </mxCell>
        <mxCell id="7Vth30fPWuzFg9I9Hq80-4" value="" style="endArrow=classic;html=1;rounded=0;exitX=0.617;exitY=1;exitDx=0;exitDy=0;exitPerimeter=0;" edge="1" parent="7Vth30fPWuzFg9I9Hq80-27">
          <mxGeometry width="50" height="50" relative="1" as="geometry">
            <mxPoint x="342.02" y="160" as="sourcePoint" />
            <mxPoint x="342" y="180" as="targetPoint" />
            <Array as="points">
              <mxPoint x="341.98" y="160" />
            </Array>
          </mxGeometry>
        </mxCell>
        <mxCell id="7Vth30fPWuzFg9I9Hq80-7" value="Repeat" style="rounded=1;whiteSpace=wrap;html=1;" vertex="1" parent="7Vth30fPWuzFg9I9Hq80-27">
          <mxGeometry x="280" y="260" width="120" height="60" as="geometry" />
        </mxCell>
        <mxCell id="7Vth30fPWuzFg9I9Hq80-8" value="" style="endArrow=classic;html=1;rounded=0;exitX=0.617;exitY=1;exitDx=0;exitDy=0;exitPerimeter=0;" edge="1" parent="7Vth30fPWuzFg9I9Hq80-27">
          <mxGeometry width="50" height="50" relative="1" as="geometry">
            <mxPoint x="312.02" y="450" as="sourcePoint" />
            <mxPoint x="312" y="470" as="targetPoint" />
            <Array as="points">
              <mxPoint x="311.98" y="450" />
            </Array>
          </mxGeometry>
        </mxCell>
        <mxCell id="7Vth30fPWuzFg9I9Hq80-11" value="Calculate sum" style="rounded=1;whiteSpace=wrap;html=1;" vertex="1" parent="7Vth30fPWuzFg9I9Hq80-27">
          <mxGeometry x="280" y="340" width="120" height="60" as="geometry" />
        </mxCell>
        <mxCell id="7Vth30fPWuzFg9I9Hq80-12" value="" style="endArrow=classic;html=1;rounded=0;exitX=0.617;exitY=1;exitDx=0;exitDy=0;exitPerimeter=0;" edge="1" parent="7Vth30fPWuzFg9I9Hq80-27">
          <mxGeometry width="50" height="50" relative="1" as="geometry">
            <mxPoint x="342.02" y="320" as="sourcePoint" />
            <mxPoint x="342" y="340" as="targetPoint" />
            <Array as="points">
              <mxPoint x="341.98" y="320" />
            </Array>
          </mxGeometry>
        </mxCell>
        <mxCell id="7Vth30fPWuzFg9I9Hq80-15" value="" style="endArrow=classic;html=1;rounded=0;exitX=0.617;exitY=1;exitDx=0;exitDy=0;exitPerimeter=0;" edge="1" parent="7Vth30fPWuzFg9I9Hq80-27" target="7Vth30fPWuzFg9I9Hq80-16">
          <mxGeometry width="50" height="50" relative="1" as="geometry">
            <mxPoint x="342.02" y="400" as="sourcePoint" />
            <mxPoint x="342" y="420" as="targetPoint" />
            <Array as="points">
              <mxPoint x="341.98" y="400" />
            </Array>
          </mxGeometry>
        </mxCell>
        <mxCell id="7Vth30fPWuzFg9I9Hq80-16" value="Incrememnt i&amp;nbsp;" style="rhombus;whiteSpace=wrap;html=1;" vertex="1" parent="7Vth30fPWuzFg9I9Hq80-27">
          <mxGeometry x="300" y="424.5" width="80" height="80" as="geometry" />
        </mxCell>
        <mxCell id="7Vth30fPWuzFg9I9Hq80-19" value="" style="strokeWidth=2;html=1;shape=mxgraph.flowchart.annotation_1;align=left;pointerEvents=1;rotation=-181;" vertex="1" parent="7Vth30fPWuzFg9I9Hq80-27">
          <mxGeometry x="379.42999999999995" y="131.67" width="114.19" height="330.29" as="geometry" />
        </mxCell>
        <mxCell id="7Vth30fPWuzFg9I9Hq80-21" value="Print the sum" style="rounded=0;whiteSpace=wrap;html=1;" vertex="1" parent="7Vth30fPWuzFg9I9Hq80-27">
          <mxGeometry x="120" y="434.5" width="120" height="60" as="geometry" />
        </mxCell>
        <mxCell id="7Vth30fPWuzFg9I9Hq80-22" value="Stop" style="ellipse;whiteSpace=wrap;html=1;aspect=fixed;" vertex="1" parent="7Vth30fPWuzFg9I9Hq80-27">
          <mxGeometry y="414.5" width="80" height="80" as="geometry" />
        </mxCell>
        <mxCell id="7Vth30fPWuzFg9I9Hq80-25" value="" style="endArrow=classic;html=1;rounded=0;exitX=0.383;exitY=0.017;exitDx=0;exitDy=0;exitPerimeter=0;entryX=1;entryY=0.5;entryDx=0;entryDy=0;" edge="1" parent="7Vth30fPWuzFg9I9Hq80-27" target="7Vth30fPWuzFg9I9Hq80-21">
          <mxGeometry width="50" height="50" relative="1" as="geometry">
            <mxPoint x="300" y="465.01" as="sourcePoint" />
            <mxPoint x="250" y="464" as="targetPoint" />
          </mxGeometry>
        </mxCell>
        <mxCell id="7Vth30fPWuzFg9I9Hq80-26" value="" style="endArrow=classic;html=1;rounded=0;" edge="1" parent="7Vth30fPWuzFg9I9Hq80-27">
          <mxGeometry width="50" height="50" relative="1" as="geometry">
            <mxPoint x="130" y="461.96000000000004" as="sourcePoint" />
            <mxPoint x="80" y="461.96000000000004" as="targetPoint" />
          </mxGeometry>
        </mxCell>
      </root>
    </mxGraphModel>
  </diagram>
</mxfile>
